<svg width="25" height="23" viewBox="0 0 25 23" fill="none" xmlns="http://www.w3.org/2000/svg">
<path d="M23.4333 11.3713C23.4333 4.60033 18.1793 0 12.3333 0C6.54899 0 1.23333 4.50166 1.23333 11.4453C0.493333 11.8646 0 12.654 0 13.5666V16.0333C0 17.39 1.11 18.5 2.46666 18.5H3.69999V10.9766C3.69999 6.20366 7.56032 2.34333 12.3333 2.34333C17.1063 2.34333 20.9666 6.20366 20.9666 10.9766V19.7333H11.1V22.2H20.9666C22.3233 22.2 23.4333 21.09 23.4333 19.7333V18.2286C24.161 17.8463 24.6666 17.094 24.6666 16.206V13.3693C24.6666 12.506 24.161 11.7536 23.4333 11.3713Z" fill="#2C2C2C"/>
<path d="M8.63333 13.5665C9.31448 13.5665 9.86666 13.0143 9.86666 12.3332C9.86666 11.652 9.31448 11.0999 8.63333 11.0999C7.95218 11.0999 7.39999 11.652 7.39999 12.3332C7.39999 13.0143 7.95218 13.5665 8.63333 13.5665Z" fill="#2C2C2C"/>
<path d="M16.0333 13.5665C16.7145 13.5665 17.2667 13.0143 17.2667 12.3332C17.2667 11.652 16.7145 11.0999 16.0333 11.0999C15.3522 11.0999 14.8 11.652 14.8 12.3332C14.8 13.0143 15.3522 13.5665 16.0333 13.5665Z" fill="#2C2C2C"/>
<path d="M19.7333 9.90361C19.1413 6.38861 16.0827 3.69995 12.395 3.69995C8.658 3.69995 4.63734 6.79561 4.95801 11.6549C8.00433 10.4093 10.2983 7.69594 10.952 4.39062C12.5677 7.63428 15.8853 9.86661 19.7333 9.90361Z" fill="#2C2C2C"/>
</svg>
