<svg width="28" height="22" viewBox="0 0 28 22" fill="none" xmlns="http://www.w3.org/2000/svg">
<path d="M14.875 0.25C12.9395 0.25 11.375 1.8145 11.375 3.75V4.625H6.13377C5.27014 4.625 4.47127 5.09925 4.06439 5.871L1.10252 11.5069L1.09027 11.5349C0.947237 11.8364 0.873681 12.1662 0.875018 12.5V13.375H1.67127C2.19627 13.375 2.62502 13.8038 2.62502 14.3288V15.9213C2.62502 16.4463 2.19627 16.875 1.67127 16.875H0.970393C1.11729 17.3815 1.42448 17.8267 1.84587 18.1438C2.26727 18.4609 2.78014 18.6329 3.30752 18.6338H3.52539C3.46309 18.0828 3.51784 17.525 3.68604 16.9967C3.85424 16.4684 4.13211 15.9816 4.50146 15.5682C4.8708 15.1547 5.32331 14.8239 5.82934 14.5974C6.33538 14.3709 6.88354 14.2538 7.43796 14.2538C7.99237 14.2538 8.54053 14.3709 9.04657 14.5974C9.55261 14.8239 10.0051 15.1547 10.3745 15.5682C10.7438 15.9816 11.0217 16.4684 11.1899 16.9967C11.3581 17.525 11.4128 18.0828 11.3505 18.6338H16.6504C16.5881 18.0828 16.6428 17.525 16.811 16.9967C16.9792 16.4684 17.2571 15.9816 17.6265 15.5682C17.9958 15.1547 18.4483 14.8239 18.9543 14.5974C19.4604 14.3709 20.0085 14.2538 20.563 14.2538C21.1174 14.2538 21.6655 14.3709 22.1716 14.5974C22.6776 14.8239 23.1301 15.1547 23.4995 15.5682C23.8688 15.9816 24.1467 16.4684 24.3149 16.9967C24.4831 17.525 24.5378 18.0828 24.4755 18.6338H24.675C25.7845 18.6338 26.726 17.89 27.0253 16.875H26.7313C26.0225 16.875 25.41 16.3325 25.375 15.6238C25.34 14.8713 25.9438 14.25 26.6875 14.25H27.125V3.75C27.125 1.8145 25.5605 0.25 23.625 0.25H14.875ZM13.125 12.5V3.75C13.125 2.7805 13.9055 2 14.875 2H23.625C24.5945 2 25.375 2.7805 25.375 3.75V12.5H13.125ZM12.25 12.5H2.62502C2.62371 12.4633 2.62694 12.4265 2.63464 12.3906C2.64628 12.3477 2.6615 12.3059 2.68014 12.2655L3.01614 11.625H7.78752C8.32127 11.625 8.75002 11.1962 8.75002 10.6625V8.22125C8.75002 7.6875 8.32127 7.25875 7.78752 7.25875H5.31127L5.61314 6.6865C5.66326 6.59203 5.73826 6.51307 5.83003 6.45817C5.92179 6.40326 6.02683 6.3745 6.13377 6.375H12.25V12.5Z" fill="white"/>
<path d="M10.5 18.1875C10.5 18.9997 10.1773 19.7787 9.60301 20.353C9.02868 20.9273 8.24973 21.25 7.4375 21.25C6.62527 21.25 5.84632 20.9273 5.27199 20.353C4.69766 19.7787 4.375 18.9997 4.375 18.1875C4.375 17.3753 4.69766 16.5963 5.27199 16.022C5.84632 15.4477 6.62527 15.125 7.4375 15.125C8.24973 15.125 9.02868 15.4477 9.60301 16.022C10.1773 16.5963 10.5 17.3753 10.5 18.1875ZM7.4375 19.5C7.7856 19.5 8.11944 19.3617 8.36558 19.1156C8.61172 18.8694 8.75 18.5356 8.75 18.1875C8.75 17.8394 8.61172 17.5056 8.36558 17.2594C8.11944 17.0133 7.7856 16.875 7.4375 16.875C7.0894 16.875 6.75556 17.0133 6.50942 17.2594C6.26328 17.5056 6.125 17.8394 6.125 18.1875C6.125 18.5356 6.26328 18.8694 6.50942 19.1156C6.75556 19.3617 7.0894 19.5 7.4375 19.5ZM23.625 18.1875C23.625 18.9997 23.3023 19.7787 22.728 20.353C22.1537 20.9273 21.3747 21.25 20.5625 21.25C19.7503 21.25 18.9713 20.9273 18.397 20.353C17.8227 19.7787 17.5 18.9997 17.5 18.1875C17.5 17.3753 17.8227 16.5963 18.397 16.022C18.9713 15.4477 19.7503 15.125 20.5625 15.125C21.3747 15.125 22.1537 15.4477 22.728 16.022C23.3023 16.5963 23.625 17.3753 23.625 18.1875ZM20.5625 19.5C20.9106 19.5 21.2444 19.3617 21.4906 19.1156C21.7367 18.8694 21.875 18.5356 21.875 18.1875C21.875 17.8394 21.7367 17.5056 21.4906 17.2594C21.2444 17.0133 20.9106 16.875 20.5625 16.875C20.2144 16.875 19.8806 17.0133 19.6344 17.2594C19.3883 17.5056 19.25 17.8394 19.25 18.1875C19.25 18.5356 19.3883 18.8694 19.6344 19.1156C19.8806 19.3617 20.2144 19.5 20.5625 19.5Z" fill="white"/>
</svg>
